<?xml version="1.0" standalone="no"?>
<!DOCTYPE svg PUBLIC "-//W3C//DTD SVG 20010904//EN"
 "http://www.w3.org/TR/2001/REC-SVG-20010904/DTD/svg10.dtd">
<svg version="1.0" xmlns="http://www.w3.org/2000/svg"
 width="640.000000pt" height="640.000000pt" viewBox="0 0 640.000000 640.000000"
 preserveAspectRatio="xMidYMid meet">
<metadata>
Created by potrace 1.11, written by Peter Selinger 2001-2013
</metadata>
<g transform="translate(0.000000,640.000000) scale(0.100000,-0.100000)"
fill="#000000" stroke="none">
<path d="M3010 5904 c-519 -49 -935 -196 -1345 -475 -273 -185 -544 -463 -728
-744 -227 -350 -365 -719 -424 -1136 -26 -187 -24 -557 5 -744 92 -596 350
-1110 767 -1529 386 -387 887 -653 1419 -751 352 -64 736 -59 1081 15 955 207
1735 926 2019 1863 290 955 33 1993 -668 2701 -416 421 -944 688 -1536 776
-131 20 -481 34 -590 24z m1093 -1258 c63 -19 102 -49 134 -104 l28 -47 3
-885 2 -884 -77 -78 -78 -78 129 -129 128 -128 -50 -47 -50 -47 -4 -173 c-3
-172 -3 -173 -33 -222 -19 -30 -49 -60 -79 -79 -49 -30 -49 -30 -220 -32
l-171 -3 -81 -81 -81 -80 -129 -35 c-71 -19 -137 -37 -148 -40 -12 -4 -16 -2
-11 5 11 19 -15 44 -31 30 -19 -15 -18 -8 11 96 14 50 25 93 25 98 0 4 -291 7
-646 7 -437 0 -659 4 -689 11 -53 13 -119 67 -145 120 -20 37 -20 66 -20 1344
0 1182 2 1309 16 1338 33 64 91 111 159 128 17 4 487 7 1046 8 837 1 1024 -1
1062 -13z"/>
<path d="M2458 4173 l-208 -208 -104 104 c-73 73 -109 102 -120 98 -9 -4 -16
-14 -16 -24 0 -19 217 -243 235 -243 18 0 455 445 455 463 0 42 -48 4 -242
-190z"/>
<path d="M2794 4125 c-4 -8 -4 -22 0 -30 5 -13 79 -15 608 -13 581 3 603 4
606 22 2 10 -2 22 -10 27 -7 5 -280 9 -606 9 -518 0 -593 -2 -598 -15z"/>
<path d="M2458 3533 l-208 -208 -104 104 c-73 73 -109 102 -120 98 -9 -4 -16
-14 -16 -24 0 -19 217 -243 235 -243 18 0 455 445 455 463 0 42 -48 4 -242
-190z"/>
<path d="M2797 3483 c-13 -12 -7 -41 8 -47 25 -9 1178 -6 1193 3 8 5 12 17 10
27 -3 18 -25 19 -604 22 -330 1 -604 -1 -607 -5z"/>
<path d="M2455 2900 l-210 -210 -100 100 c-97 97 -140 123 -133 80 3 -18 223
-250 237 -250 3 0 107 101 230 224 219 220 246 255 201 264 -8 1 -108 -90
-225 -208z"/>
<path d="M2797 2833 c-4 -3 -7 -15 -7 -25 0 -17 25 -18 611 -18 l610 0 -3 23
-3 22 -601 3 c-330 1 -604 -1 -607 -5z"/>
<path d="M4010 1963 l-235 -238 238 235 c130 129 237 236 237 237 0 8 -22 -14
-240 -234z"/>
</g>
</svg>
